static_00
version=1
nRows=9
nColumns=46
inDegrees=yes
endheader
time	ground_force3_vx	ground_force3_vy	ground_force3_vz	ground_force3_px	ground_force3_py	ground_force3_pz	ground_torque3_x	ground_torque3_y	ground_torque3_z	ground_force5_vx	ground_force5_vy	ground_force5_vz	ground_force5_px	ground_force5_py	ground_force5_pz	ground_torque5_x	ground_torque5_y	ground_torque5_z	ground_force4_vx	ground_force4_vy	ground_force4_vz	ground_force4_px	ground_force4_py	ground_force4_pz	ground_torque4_x	ground_torque4_y	ground_torque4_z	ground_force1_vx	ground_force1_vy	ground_force1_vz	ground_force1_px	ground_force1_py	ground_force1_pz	ground_torque1_x	ground_torque1_y	ground_torque1_z	ground_force2_vx	ground_force2_vy	ground_force2_vz	ground_force2_px	ground_force2_py	ground_force2_pz	ground_torque2_x	ground_torque2_y	ground_torque2_z
0.737000	0.282286	25.908844	-2.745347	0.221470	0.000000	-0.273886	0.000000	0.108774	0.000000	-0.654400	35.839325	-2.561251	0.214747	0.000000	-1.418839	0.000005	0.592435	0.000000	-2.095686	580.749634	-2.088606	0.212443	0.000000	-0.869318	0.000010	-0.673089	0.000003	2.565689	15.292414	1.051325	0.202929	0.000000	0.875840	-0.000000	1.030904	0.000000	-1.165940	13.777016	2.979403	0.142536	0.000000	0.194435	-0.000000	1.311052	0.000000	
0.738000	0.282286	26.226063	-2.745347	0.219608	0.000000	-0.267348	0.000000	0.234208	0.000001	-0.009040	37.752335	-2.882997	0.220349	0.000000	-1.410337	0.000002	0.433666	0.000000	-1.931555	581.394409	-1.603943	0.212164	0.000000	-0.868680	0.000034	-0.520359	0.000004	2.566548	13.712513	0.568024	0.200496	0.000000	0.855683	-0.000001	0.897701	0.000000	-1.808758	14.736527	2.013138	0.148845	0.000000	0.229534	-0.000000	1.221420	0.000000	
0.739000	-0.522078	27.173166	-3.713477	0.216069	0.000000	-0.272315	0.000000	0.145368	0.000000	0.150644	36.479435	-2.078632	0.217576	0.000000	-1.419734	0.000003	0.681870	0.000000	-1.446882	583.313477	-1.925012	0.212171	0.000000	-0.869228	0.000033	-0.493840	0.000005	2.890344	16.862331	1.534626	0.210076	0.000000	0.848912	-0.000001	0.880890	0.000000	-1.005659	16.959614	2.172486	0.159106	0.000000	0.245175	-0.000000	1.092760	0.000000	
0.740000	-0.039460	25.907864	-2.584219	0.214829	0.000000	-0.278170	0.000000	0.189283	0.000000	0.313386	37.749336	-2.561251	0.211272	0.000000	-1.416332	0.000001	0.405028	0.000000	-1.768968	581.395447	-2.570209	0.212185	0.000000	-0.869386	0.000032	-0.470060	0.000002	2.889485	14.031868	0.406641	0.226332	0.000000	0.878556	-0.000001	0.977820	0.000000	-0.845377	15.690214	2.333869	0.155501	0.000000	0.255236	-0.000000	1.138698	0.000000	
0.741000	-0.200332	26.225735	-2.261282	0.218583	0.000000	-0.261878	0.000000	0.128436	0.000000	-0.010568	39.025227	-3.043530	0.214278	0.000000	-1.416587	0.000001	0.630800	0.000001	-2.094142	581.391113	-2.087587	0.212431	0.000000	-0.869560	0.000054	-0.569194	0.000003	2.724581	14.658401	0.729407	0.213724	0.000000	0.856369	-0.000001	1.190376	0.000000	-1.807912	14.096221	2.814966	0.129885	0.000000	0.229648	-0.000000	1.155024	0.000000	
0.742000	-0.200333	27.174149	-2.745347	0.222546	0.000000	-0.279533	0.000000	0.003734	-0.000000	-0.011077	40.937557	-2.400717	0.212026	0.000000	-1.425893	0.000008	0.680740	0.000001	-1.768968	582.988892	-2.410696	0.212630	0.000000	-0.869776	0.000024	-0.528154	0.000004	3.860874	14.658171	1.696858	0.222117	0.000000	0.843012	-0.000000	0.889291	0.000000	-1.808758	16.952230	2.015173	0.154751	0.000000	0.215608	-0.000000	1.312031	0.000000	
0.743000	-0.361205	25.595207	-2.584560	0.221749	0.000000	-0.261585	0.000001	0.155448	0.000000	0.634283	37.112885	-3.203728	0.211998	0.000000	-1.422471	0.000004	0.604703	0.000001	-1.123252	581.708618	-1.603943	0.212704	0.000000	-0.868808	0.000040	-0.525623	0.000006	3.213281	14.030409	1.210161	0.210666	0.000000	0.855053	-0.000000	0.828815	0.000000	-1.647631	16.322170	2.654601	0.152897	0.000000	0.221188	-0.000000	1.133450	0.000000	
0.744000	0.121413	27.170549	-2.261282	0.211441	0.000000	-0.265332	-0.000000	0.124132	0.000000	0.473070	39.664997	-2.882658	0.214898	0.000000	-1.427242	0.000005	0.588167	0.000000	-1.930010	581.391479	-1.604963	0.212307	0.000000	-0.869311	0.000021	-0.492776	0.000007	3.050095	16.550577	1.051325	0.208595	0.000000	0.857254	-0.000001	1.043748	0.000000	-1.005659	16.958586	2.655618	0.158532	0.000000	0.253756	0.000000	1.124901	0.000000	
0.745000	0.604032	26.226715	-3.390539	0.220161	0.000000	-0.263932	0.000000	0.196870	0.000000	0.150644	36.473442	-2.400040	0.209450	0.000000	-1.416528	0.000003	0.668458	0.000000	-1.446882	583.308411	-1.929092	0.212451	0.000000	-0.870067	0.000028	-0.646637	-0.000002	2.887768	15.290136	1.050476	0.204016	0.000000	0.883724	-0.000001	1.129023	0.000000	-1.327068	17.912117	2.654601	0.157300	0.000000	0.260822	-0.000000	1.101602	0.000000	
